# xmcd
#
# Track frame offsets: 
#        179
#        11609
#        20910
#        30611
#        38900
#        49690
#        59289
#        70942
#        81426
#        90603
#        102661
#        112710
#
# Disc length: 1620 seconds
#
# Revision: 6
# Processed by: cddbd v1.5.2PL0 Copyright (c) Steve Scherf et al.
# Submitted via: ExactAudioCopyFreeDBPlugin 1.0
#
DISCID=9a06520c
DTITLE=JOHNNY CASH - 1960 Johnny Cash - Now There Was a Song (Sony)
DYEAR=1960
DGENRE=Country
TTITLE0=Seasons of my heart
TTITLE1=I feel better all over
TTITLE2=I couldn't keep from crying
TTITLE3=Time changes everything
TTITLE4=My shoes keep walking back to you
TTITLE5=I'd just be fool enough (To fall)
TTITLE6=Transfusion blues
TTITLE7=Why do you punish me (For loving you)
TTITLE8=I will miss you when you go
TTITLE9=I'm so lonesome I could cry
TTITLE10=Just one more
TTITLE11=Honky-tonk girl
EXTD=
EXTT0=
EXTT1=
EXTT2=
EXTT3=
EXTT4=
EXTT5=
EXTT6=
EXTT7=
EXTT8=
EXTT9=
EXTT10=
EXTT11=
PLAYORDER=
